<svg xmlns="http://www.w3.org/2000/svg" xmlns:xlink="http://www.w3.org/1999/xlink" width="80" zoomAndPan="magnify" viewBox="0 0 60 60" height="80" preserveAspectRatio="xMidYMid meet" version="1.2"><defs/><g id="4df5a96fa2"><path style="fill:none;stroke-width:2;stroke-linecap:round;stroke-linejoin:miter;stroke:#174349;stroke-opacity:1;stroke-miterlimit:4;" d="M 1.002315 1.000861 L 26.065405 1.000861 " transform="matrix(0.00000000130597,-0.748268,0.748268,0.00000000130597,46.294056,40.148438)"/><g style="fill:#174349;fill-opacity:1;"><g transform="translate(14.639248, 31.683101)"><path style="stroke:none" d="M 4.4375 -1.515625 C 4.582031 -1.515625 4.691406 -1.457031 4.765625 -1.34375 C 4.847656 -1.226562 4.890625 -1.09375 4.890625 -0.9375 C 4.890625 -0.789062 4.851562 -0.660156 4.78125 -0.546875 C 4.71875 -0.441406 4.628906 -0.382812 4.515625 -0.375 C 4.421875 -0.375 4.070312 -0.34375 3.46875 -0.28125 C 2.875 -0.21875 2.304688 -0.144531 1.765625 -0.0625 C 1.234375 0.0195312 0.914062 0.0976562 0.8125 0.171875 C 0.738281 0.0976562 0.675781 0.015625 0.625 -0.078125 C 0.582031 -0.179688 0.5625 -0.285156 0.5625 -0.390625 C 0.5625 -0.585938 0.648438 -0.753906 0.828125 -0.890625 C 1.015625 -1.035156 1.289062 -1.109375 1.65625 -1.109375 C 1.425781 -1.222656 1.226562 -1.398438 1.0625 -1.640625 C 0.894531 -1.878906 0.8125 -2.160156 0.8125 -2.484375 C 0.8125 -2.796875 0.890625 -3.101562 1.046875 -3.40625 C 1.203125 -3.707031 1.445312 -3.957031 1.78125 -4.15625 C 2.113281 -4.363281 2.519531 -4.46875 3 -4.46875 C 3.425781 -4.46875 3.765625 -4.378906 4.015625 -4.203125 C 4.265625 -4.035156 4.390625 -3.773438 4.390625 -3.421875 C 4.390625 -3.179688 4.328125 -3.003906 4.203125 -2.890625 C 4.085938 -2.785156 3.9375 -2.734375 3.75 -2.734375 C 3.570312 -2.734375 3.390625 -2.769531 3.203125 -2.84375 C 3.210938 -3.050781 3.175781 -3.234375 3.09375 -3.390625 C 3.007812 -3.546875 2.867188 -3.628906 2.671875 -3.640625 C 2.566406 -3.535156 2.472656 -3.394531 2.390625 -3.21875 C 2.304688 -3.039062 2.265625 -2.859375 2.265625 -2.671875 C 2.265625 -2.460938 2.320312 -2.257812 2.4375 -2.0625 C 2.550781 -1.875 2.710938 -1.71875 2.921875 -1.59375 C 3.128906 -1.46875 3.363281 -1.40625 3.625 -1.40625 C 3.726562 -1.40625 3.898438 -1.425781 4.140625 -1.46875 C 4.296875 -1.5 4.394531 -1.515625 4.4375 -1.515625 Z M 4.4375 -1.515625 "/></g></g><g style="fill:#174349;fill-opacity:1;"><g transform="translate(19.584408, 31.683101)"><path style="stroke:none" d="M 2.578125 0 C 2.097656 0 1.734375 -0.171875 1.484375 -0.515625 C 1.234375 -0.859375 1.101562 -1.289062 1.09375 -1.8125 L 1.09375 -5.828125 C 1.09375 -6.140625 1.046875 -6.351562 0.953125 -6.46875 C 0.859375 -6.59375 0.773438 -6.671875 0.703125 -6.703125 C 0.628906 -6.734375 0.582031 -6.75 0.5625 -6.75 C 0.5625 -6.832031 0.59375 -6.929688 0.65625 -7.046875 C 0.726562 -7.171875 0.832031 -7.273438 0.96875 -7.359375 C 1.101562 -7.453125 1.273438 -7.5 1.484375 -7.5 C 1.804688 -7.5 2.066406 -7.367188 2.265625 -7.109375 C 2.472656 -6.859375 2.578125 -6.535156 2.578125 -6.140625 L 2.578125 -1.9375 C 2.578125 -1.6875 2.617188 -1.5 2.703125 -1.375 C 2.785156 -1.257812 2.90625 -1.203125 3.0625 -1.203125 L 3.625 -1.203125 L 3.625 0 Z M 2.578125 0 "/></g></g><g style="fill:#174349;fill-opacity:1;"><g transform="translate(22.700234, 31.683101)"><path style="stroke:none" d="M 6 -1.203125 L 6 0 L 5.671875 0 C 5.242188 0 4.851562 -0.117188 4.5 -0.359375 C 4.164062 -0.109375 3.734375 0.015625 3.203125 0.015625 C 2.785156 0.015625 2.429688 -0.0664062 2.140625 -0.234375 C 2.035156 -0.171875 1.890625 -0.113281 1.703125 -0.0625 C 1.523438 -0.0195312 1.347656 0 1.171875 0 L 0 0 L 0 -1.203125 L 0.65625 -1.203125 L 0.65625 -2.625 C 0.65625 -3.40625 0.726562 -4 0.875 -4.40625 C 1.03125 -4.820312 1.257812 -5.097656 1.5625 -5.234375 C 1.863281 -5.378906 2.28125 -5.453125 2.8125 -5.453125 C 3.28125 -5.453125 3.691406 -5.390625 4.046875 -5.265625 C 4.410156 -5.140625 4.71875 -4.875 4.96875 -4.46875 C 5.21875 -4.0625 5.34375 -3.46875 5.34375 -2.6875 C 5.34375 -2.09375 5.269531 -1.597656 5.125 -1.203125 Z M 3.171875 -1.203125 C 3.441406 -1.203125 3.625 -1.359375 3.71875 -1.671875 C 3.820312 -1.992188 3.875 -2.351562 3.875 -2.75 C 3.875 -3.25 3.804688 -3.625 3.671875 -3.875 C 3.535156 -4.125 3.296875 -4.25 2.953125 -4.25 C 2.734375 -4.25 2.539062 -4.195312 2.375 -4.09375 C 2.21875 -3.988281 2.140625 -3.816406 2.140625 -3.578125 L 2.140625 -1.203125 Z M 3.171875 -1.203125 "/></g></g><g style="fill:#174349;fill-opacity:1;"><g transform="translate(28.181435, 31.683101)"><path style="stroke:none" d="M 4.140625 -1.203125 L 4.140625 0 L 2.515625 0 C 2.117188 0 1.75 -0.128906 1.40625 -0.390625 C 1.226562 -0.253906 1.066406 -0.15625 0.921875 -0.09375 C 0.773438 -0.03125 0.59375 0 0.375 0 L 0 0 L 0 -1.203125 L 0.375 -1.203125 C 0.570312 -1.203125 0.742188 -1.226562 0.890625 -1.28125 C 1.035156 -1.332031 1.179688 -1.421875 1.328125 -1.546875 L 1.328125 -4.703125 C 1.328125 -4.910156 1.382812 -5.085938 1.5 -5.234375 C 1.625 -5.378906 1.8125 -5.453125 2.0625 -5.453125 C 2.320312 -5.453125 2.507812 -5.375 2.625 -5.21875 C 2.75 -5.070312 2.8125 -4.894531 2.8125 -4.6875 L 2.8125 -1.9375 C 2.8125 -1.6875 2.851562 -1.5 2.9375 -1.375 C 3.019531 -1.257812 3.140625 -1.203125 3.296875 -1.203125 Z M 1.140625 2.453125 C 0.941406 2.453125 0.769531 2.378906 0.625 2.234375 C 0.476562 2.085938 0.40625 1.910156 0.40625 1.703125 C 0.40625 1.503906 0.476562 1.332031 0.625 1.1875 C 0.769531 1.039062 0.941406 0.96875 1.140625 0.96875 C 1.347656 0.96875 1.519531 1.039062 1.65625 1.1875 C 1.800781 1.332031 1.875 1.503906 1.875 1.703125 C 1.875 1.910156 1.800781 2.085938 1.65625 2.234375 C 1.519531 2.378906 1.347656 2.453125 1.140625 2.453125 Z M 2.984375 2.453125 C 2.785156 2.453125 2.613281 2.378906 2.46875 2.234375 C 2.320312 2.085938 2.25 1.910156 2.25 1.703125 C 2.25 1.503906 2.320312 1.332031 2.46875 1.1875 C 2.613281 1.039062 2.785156 0.96875 2.984375 0.96875 C 3.191406 0.96875 3.363281 1.039062 3.5 1.1875 C 3.644531 1.332031 3.71875 1.503906 3.71875 1.703125 C 3.71875 1.910156 3.644531 2.085938 3.5 2.234375 C 3.363281 2.378906 3.191406 2.453125 2.984375 2.453125 Z M 2.984375 2.453125 "/></g></g><g style="fill:#174349;fill-opacity:1;"><g transform="translate(31.808999, 31.683101)"><path style="stroke:none" d="M 8.671875 -5.453125 C 9.140625 -5.453125 9.492188 -5.242188 9.734375 -4.828125 C 9.984375 -4.410156 10.109375 -3.796875 10.109375 -2.984375 C 10.109375 -2.273438 9.957031 -1.597656 9.65625 -0.953125 C 9.351562 -0.316406 8.71875 0 7.75 0 L 7.609375 0 C 6.878906 0 6.300781 -0.21875 5.875 -0.65625 C 5.769531 -0.476562 5.625 -0.320312 5.4375 -0.1875 C 5.257812 -0.0625 5.023438 0 4.734375 0 L 3.03125 0 C 2.644531 0 2.273438 -0.128906 1.921875 -0.390625 C 1.742188 -0.253906 1.582031 -0.15625 1.4375 -0.09375 C 1.300781 -0.03125 1.125 0 0.90625 0 L 0 0 L 0 -1.203125 L 0.671875 -1.203125 C 0.816406 -1.203125 0.929688 -1.289062 1.015625 -1.46875 C 1.109375 -1.65625 1.15625 -1.867188 1.15625 -2.109375 L 1.15625 -4.015625 C 1.15625 -4.273438 1.203125 -4.472656 1.296875 -4.609375 C 1.390625 -4.753906 1.59375 -4.828125 1.90625 -4.828125 C 2.207031 -4.828125 2.40625 -4.753906 2.5 -4.609375 C 2.59375 -4.472656 2.640625 -4.273438 2.640625 -4.015625 L 2.640625 -1.953125 C 2.640625 -1.710938 2.679688 -1.53125 2.765625 -1.40625 C 2.847656 -1.28125 2.960938 -1.210938 3.109375 -1.203125 L 4.296875 -1.203125 C 4.503906 -1.203125 4.644531 -1.289062 4.71875 -1.46875 C 4.789062 -1.65625 4.828125 -1.863281 4.828125 -2.09375 L 4.828125 -4.28125 C 4.828125 -4.582031 4.898438 -4.796875 5.046875 -4.921875 C 5.191406 -5.046875 5.363281 -5.109375 5.5625 -5.109375 C 5.757812 -5.109375 5.929688 -5.046875 6.078125 -4.921875 C 6.222656 -4.796875 6.296875 -4.582031 6.296875 -4.28125 L 6.296875 -2.09375 C 6.296875 -1.5 6.425781 -1.203125 6.6875 -1.203125 L 7.84375 -1.203125 C 8.0625 -1.203125 8.25 -1.347656 8.40625 -1.640625 C 8.5625 -1.929688 8.640625 -2.3125 8.640625 -2.78125 C 8.640625 -3.351562 8.546875 -3.8125 8.359375 -4.15625 C 8.179688 -4.507812 7.988281 -4.726562 7.78125 -4.8125 C 7.800781 -4.976562 7.882812 -5.125 8.03125 -5.25 C 8.1875 -5.382812 8.398438 -5.453125 8.671875 -5.453125 Z M 5.5625 -9.25 C 5.75 -9.25 5.910156 -9.1875 6.046875 -9.0625 C 6.179688 -8.9375 6.25 -8.773438 6.25 -8.578125 C 6.25 -8.378906 6.179688 -8.210938 6.046875 -8.078125 C 5.910156 -7.953125 5.75 -7.890625 5.5625 -7.890625 C 5.363281 -7.890625 5.195312 -7.953125 5.0625 -8.078125 C 4.9375 -8.210938 4.875 -8.378906 4.875 -8.578125 C 4.875 -8.773438 4.9375 -8.9375 5.0625 -9.0625 C 5.195312 -9.1875 5.363281 -9.25 5.5625 -9.25 Z M 4.640625 -7.671875 C 4.847656 -7.671875 5.019531 -7.597656 5.15625 -7.453125 C 5.300781 -7.304688 5.375 -7.132812 5.375 -6.9375 C 5.375 -6.726562 5.300781 -6.550781 5.15625 -6.40625 C 5.019531 -6.257812 4.847656 -6.1875 4.640625 -6.1875 C 4.441406 -6.1875 4.269531 -6.257812 4.125 -6.40625 C 3.976562 -6.550781 3.90625 -6.726562 3.90625 -6.9375 C 3.90625 -7.132812 3.976562 -7.304688 4.125 -7.453125 C 4.269531 -7.597656 4.441406 -7.671875 4.640625 -7.671875 Z M 6.484375 -7.671875 C 6.691406 -7.671875 6.863281 -7.597656 7 -7.453125 C 7.144531 -7.304688 7.21875 -7.132812 7.21875 -6.9375 C 7.21875 -6.726562 7.144531 -6.550781 7 -6.40625 C 6.863281 -6.257812 6.691406 -6.1875 6.484375 -6.1875 C 6.285156 -6.1875 6.113281 -6.257812 5.96875 -6.40625 C 5.820312 -6.550781 5.75 -6.726562 5.75 -6.9375 C 5.75 -7.132812 5.820312 -7.304688 5.96875 -7.453125 C 6.113281 -7.597656 6.285156 -7.671875 6.484375 -7.671875 Z M 6.484375 -7.671875 "/></g></g></g></svg>