<svg xmlns="http://www.w3.org/2000/svg" xmlns:xlink="http://www.w3.org/1999/xlink" width="500" zoomAndPan="magnify" viewBox="0 0 375 374.999991" height="500" preserveAspectRatio="xMidYMid meet" version="1.2"><defs/><g id="2f968603f9"><path style="fill:none;stroke-width:12;stroke-linecap:round;stroke-linejoin:miter;stroke:#174349;stroke-opacity:1;stroke-miterlimit:4;" d="M 5.999979 6.000032 L 153.999988 6.000031 " transform="matrix(0.000000001309,-0.75,0.75,0.000000001309,259.820289,247.499984)"/><g style="fill:#174349;fill-opacity:1;"><g transform="translate(109.953124, 200.249987)"><path style="stroke:none" d="M 21.6875 -7.390625 C 22.394531 -7.390625 22.941406 -7.113281 23.328125 -6.5625 C 23.710938 -6.007812 23.90625 -5.359375 23.90625 -4.609375 C 23.90625 -3.867188 23.738281 -3.226562 23.40625 -2.6875 C 23.070312 -2.15625 22.628906 -1.867188 22.078125 -1.828125 C 21.628906 -1.828125 19.929688 -1.679688 16.984375 -1.390625 C 14.035156 -1.097656 11.253906 -0.742188 8.640625 -0.328125 C 6.035156 0.078125 4.488281 0.460938 4 0.828125 C 3.632812 0.492188 3.335938 0.078125 3.109375 -0.421875 C 2.890625 -0.921875 2.78125 -1.410156 2.78125 -1.890625 C 2.78125 -2.890625 3.210938 -3.734375 4.078125 -4.421875 C 4.953125 -5.109375 6.28125 -5.453125 8.0625 -5.453125 C 6.988281 -5.972656 6.035156 -6.820312 5.203125 -8 C 4.367188 -9.1875 3.953125 -10.578125 3.953125 -12.171875 C 3.953125 -13.660156 4.335938 -15.144531 5.109375 -16.625 C 5.890625 -18.113281 7.085938 -19.359375 8.703125 -20.359375 C 10.316406 -21.359375 12.3125 -21.859375 14.6875 -21.859375 C 16.757812 -21.859375 18.40625 -21.441406 19.625 -20.609375 C 20.851562 -19.773438 21.46875 -18.484375 21.46875 -16.734375 C 21.46875 -15.546875 21.175781 -14.679688 20.59375 -14.140625 C 20.019531 -13.609375 19.253906 -13.34375 18.296875 -13.34375 C 17.441406 -13.34375 16.550781 -13.53125 15.625 -13.90625 C 15.695312 -14.90625 15.53125 -15.789062 15.125 -16.5625 C 14.71875 -17.34375 14.03125 -17.753906 13.0625 -17.796875 C 12.550781 -17.273438 12.085938 -16.578125 11.671875 -15.703125 C 11.265625 -14.835938 11.0625 -13.957031 11.0625 -13.0625 C 11.0625 -12.0625 11.335938 -11.085938 11.890625 -10.140625 C 12.453125 -9.203125 13.242188 -8.425781 14.265625 -7.8125 C 15.285156 -7.195312 16.441406 -6.890625 17.734375 -6.890625 C 18.222656 -6.890625 19.054688 -6.984375 20.234375 -7.171875 C 20.984375 -7.316406 21.46875 -7.390625 21.6875 -7.390625 Z M 21.6875 -7.390625 "/></g></g><g style="fill:#174349;fill-opacity:1;"><g transform="translate(134.13561, 200.249987)"><path style="stroke:none" d="M 12.5625 0 C 10.226562 0 8.445312 -0.84375 7.21875 -2.53125 C 6 -4.21875 5.375 -6.335938 5.34375 -8.890625 L 5.34375 -28.53125 C 5.34375 -30.007812 5.117188 -31.046875 4.671875 -31.640625 C 4.222656 -32.234375 3.8125 -32.601562 3.4375 -32.75 C 3.070312 -32.894531 2.851562 -32.988281 2.78125 -33.03125 C 2.78125 -33.40625 2.9375 -33.890625 3.25 -34.484375 C 3.5625 -35.078125 4.050781 -35.59375 4.71875 -36.03125 C 5.394531 -36.476562 6.234375 -36.703125 7.234375 -36.703125 C 8.828125 -36.703125 10.113281 -36.070312 11.09375 -34.8125 C 12.070312 -33.550781 12.5625 -31.957031 12.5625 -30.03125 L 12.5625 -9.453125 C 12.5625 -8.265625 12.765625 -7.375 13.171875 -6.78125 C 13.585938 -6.1875 14.179688 -5.890625 14.953125 -5.890625 L 17.734375 -5.890625 L 17.734375 0 Z M 12.5625 0 "/></g></g><g style="fill:#174349;fill-opacity:1;"><g transform="translate(149.371071, 200.249987)"><path style="stroke:none" d="M 29.3125 -5.890625 L 29.3125 0 L 27.75 0 C 25.632812 0 23.722656 -0.570312 22.015625 -1.71875 C 20.347656 -0.5 18.21875 0.109375 15.625 0.109375 C 13.625 0.109375 11.898438 -0.296875 10.453125 -1.109375 C 9.929688 -0.816406 9.234375 -0.554688 8.359375 -0.328125 C 7.492188 -0.109375 6.617188 0 5.734375 0 L 0 0 L 0 -5.890625 L 3.21875 -5.890625 L 3.21875 -12.84375 C 3.21875 -16.664062 3.585938 -19.578125 4.328125 -21.578125 C 5.078125 -23.578125 6.179688 -24.925781 7.640625 -25.625 C 9.109375 -26.332031 11.140625 -26.6875 13.734375 -26.6875 C 16.035156 -26.6875 18.066406 -26.378906 19.828125 -25.765625 C 21.585938 -25.160156 23.078125 -23.859375 24.296875 -21.859375 C 25.523438 -19.859375 26.140625 -16.945312 26.140625 -13.125 C 26.140625 -10.226562 25.769531 -7.816406 25.03125 -5.890625 Z M 15.515625 -5.890625 C 16.847656 -5.890625 17.742188 -6.660156 18.203125 -8.203125 C 18.671875 -9.742188 18.90625 -11.492188 18.90625 -13.453125 C 18.90625 -15.898438 18.578125 -17.734375 17.921875 -18.953125 C 17.273438 -20.179688 16.117188 -20.796875 14.453125 -20.796875 C 13.378906 -20.796875 12.441406 -20.535156 11.640625 -20.015625 C 10.847656 -19.492188 10.453125 -18.660156 10.453125 -17.515625 L 10.453125 -5.890625 Z M 15.515625 -5.890625 "/></g></g><g style="fill:#174349;fill-opacity:1;"><g transform="translate(176.172366, 200.249987)"><path style="stroke:none" d="M 20.234375 -5.890625 L 20.234375 0 L 12.296875 0 C 10.359375 0 8.539062 -0.648438 6.84375 -1.953125 C 5.988281 -1.285156 5.207031 -0.789062 4.5 -0.46875 C 3.800781 -0.15625 2.910156 0 1.828125 0 L 0 0 L 0 -5.890625 L 1.828125 -5.890625 C 2.796875 -5.890625 3.628906 -6.019531 4.328125 -6.28125 C 5.035156 -6.539062 5.757812 -6.96875 6.5 -7.5625 L 6.5 -23.015625 C 6.5 -24.023438 6.785156 -24.890625 7.359375 -25.609375 C 7.941406 -26.328125 8.863281 -26.6875 10.125 -26.6875 C 11.382812 -26.6875 12.300781 -26.316406 12.875 -25.578125 C 13.445312 -24.835938 13.734375 -23.945312 13.734375 -22.90625 L 13.734375 -9.453125 C 13.734375 -8.265625 13.9375 -7.375 14.34375 -6.78125 C 14.75 -6.1875 15.34375 -5.890625 16.125 -5.890625 Z M 5.625 11.96875 C 4.65625 11.96875 3.804688 11.613281 3.078125 10.90625 C 2.359375 10.195312 2 9.34375 2 8.34375 C 2 7.34375 2.359375 6.488281 3.078125 5.78125 C 3.804688 5.082031 4.65625 4.734375 5.625 4.734375 C 6.625 4.734375 7.472656 5.082031 8.171875 5.78125 C 8.878906 6.488281 9.234375 7.34375 9.234375 8.34375 C 9.234375 9.34375 8.878906 10.195312 8.171875 10.90625 C 7.472656 11.613281 6.625 11.96875 5.625 11.96875 Z M 14.625 11.96875 C 13.664062 11.96875 12.820312 11.613281 12.09375 10.90625 C 11.375 10.195312 11.015625 9.34375 11.015625 8.34375 C 11.015625 7.34375 11.375 6.488281 12.09375 5.78125 C 12.820312 5.082031 13.664062 4.734375 14.625 4.734375 C 15.664062 4.734375 16.53125 5.082031 17.21875 5.78125 C 17.90625 6.488281 18.25 7.34375 18.25 8.34375 C 18.25 9.34375 17.90625 10.195312 17.21875 10.90625 C 16.53125 11.613281 15.664062 11.96875 14.625 11.96875 Z M 14.625 11.96875 "/></g></g><g style="fill:#174349;fill-opacity:1;"><g transform="translate(193.910043, 200.249987)"><path style="stroke:none" d="M 42.4375 -26.6875 C 44.695312 -26.6875 46.425781 -25.664062 47.625 -23.625 C 48.832031 -21.59375 49.4375 -18.59375 49.4375 -14.625 C 49.4375 -11.132812 48.691406 -7.820312 47.203125 -4.6875 C 45.722656 -1.5625 42.628906 0 37.921875 0 L 37.203125 0 C 33.640625 0 30.820312 -1.070312 28.75 -3.21875 C 28.226562 -2.375 27.515625 -1.625 26.609375 -0.96875 C 25.703125 -0.320312 24.546875 0 23.140625 0 L 14.84375 0 C 12.914062 0 11.097656 -0.648438 9.390625 -1.953125 C 8.546875 -1.285156 7.769531 -0.789062 7.0625 -0.46875 C 6.351562 -0.15625 5.460938 0 4.390625 0 L 0 0 L 0 -5.890625 L 3.28125 -5.890625 C 3.988281 -5.890625 4.5625 -6.332031 5 -7.21875 C 5.445312 -8.113281 5.671875 -9.132812 5.671875 -10.28125 L 5.671875 -19.625 C 5.671875 -20.882812 5.890625 -21.867188 6.328125 -22.578125 C 6.773438 -23.285156 7.757812 -23.640625 9.28125 -23.640625 C 10.800781 -23.640625 11.785156 -23.285156 12.234375 -22.578125 C 12.679688 -21.867188 12.90625 -20.882812 12.90625 -19.625 L 12.90625 -9.5625 C 12.90625 -8.375 13.109375 -7.472656 13.515625 -6.859375 C 13.921875 -6.253906 14.492188 -5.929688 15.234375 -5.890625 L 21.015625 -5.890625 C 22.015625 -5.890625 22.691406 -6.332031 23.046875 -7.21875 C 23.398438 -8.113281 23.578125 -9.117188 23.578125 -10.234375 L 23.578125 -20.90625 C 23.578125 -22.394531 23.9375 -23.441406 24.65625 -24.046875 C 25.382812 -24.660156 26.226562 -24.96875 27.1875 -24.96875 C 28.15625 -24.96875 29 -24.660156 29.71875 -24.046875 C 30.445312 -23.441406 30.8125 -22.394531 30.8125 -20.90625 L 30.8125 -10.234375 C 30.8125 -7.335938 31.441406 -5.890625 32.703125 -5.890625 L 38.3125 -5.890625 C 39.382812 -5.890625 40.300781 -6.601562 41.0625 -8.03125 C 41.820312 -9.457031 42.203125 -11.320312 42.203125 -13.625 C 42.203125 -16.40625 41.765625 -18.644531 40.890625 -20.34375 C 40.023438 -22.050781 39.070312 -23.109375 38.03125 -23.515625 C 38.144531 -24.335938 38.5625 -25.070312 39.28125 -25.71875 C 40.007812 -26.363281 41.0625 -26.6875 42.4375 -26.6875 Z M 27.1875 -45.265625 C 28.113281 -45.265625 28.898438 -44.945312 29.546875 -44.3125 C 30.203125 -43.6875 30.53125 -42.890625 30.53125 -41.921875 C 30.53125 -40.992188 30.203125 -40.207031 29.546875 -39.5625 C 28.898438 -38.914062 28.113281 -38.59375 27.1875 -38.59375 C 26.21875 -38.59375 25.414062 -38.914062 24.78125 -39.5625 C 24.15625 -40.207031 23.84375 -40.992188 23.84375 -41.921875 C 23.84375 -42.890625 24.15625 -43.6875 24.78125 -44.3125 C 25.414062 -44.945312 26.21875 -45.265625 27.1875 -45.265625 Z M 22.6875 -37.53125 C 23.6875 -37.53125 24.535156 -37.175781 25.234375 -36.46875 C 25.941406 -35.769531 26.296875 -34.921875 26.296875 -33.921875 C 26.296875 -32.921875 25.941406 -32.066406 25.234375 -31.359375 C 24.535156 -30.648438 23.6875 -30.296875 22.6875 -30.296875 C 21.71875 -30.296875 20.867188 -30.648438 20.140625 -31.359375 C 19.421875 -32.066406 19.0625 -32.921875 19.0625 -33.921875 C 19.0625 -34.921875 19.421875 -35.769531 20.140625 -36.46875 C 20.867188 -37.175781 21.71875 -37.53125 22.6875 -37.53125 Z M 31.6875 -37.53125 C 32.726562 -37.53125 33.59375 -37.175781 34.28125 -36.46875 C 34.96875 -35.769531 35.3125 -34.921875 35.3125 -33.921875 C 35.3125 -32.921875 34.96875 -32.066406 34.28125 -31.359375 C 33.59375 -30.648438 32.726562 -30.296875 31.6875 -30.296875 C 30.726562 -30.296875 29.882812 -30.648438 29.15625 -31.359375 C 28.4375 -32.066406 28.078125 -32.921875 28.078125 -33.921875 C 28.078125 -34.921875 28.4375 -35.769531 29.15625 -36.46875 C 29.882812 -37.175781 30.726562 -37.53125 31.6875 -37.53125 Z M 31.6875 -37.53125 "/></g></g></g></svg>