<svg xmlns="http://www.w3.org/2000/svg" xmlns:xlink="http://www.w3.org/1999/xlink" width="250" zoomAndPan="magnify" viewBox="0 0 187.5 74.999997" height="100" preserveAspectRatio="xMidYMid meet" version="1.2"><defs/><g id="187b6ab36e"><path style="fill:none;stroke-width:4;stroke-linecap:round;stroke-linejoin:miter;stroke:#174349;stroke-opacity:1;stroke-miterlimit:4;" d="M 1.998373 2.000588 L 48.479646 2.000588 " transform="matrix(0,-0.741058,0.741058,0,121.279167,56.375441)"/><g style="fill:#174349;fill-opacity:1;"><g transform="translate(74.207114, 41.511783)"><path style="stroke:none" d="M 6.828125 -2.328125 C 7.046875 -2.328125 7.21875 -2.238281 7.34375 -2.0625 C 7.46875 -1.882812 7.53125 -1.679688 7.53125 -1.453125 C 7.53125 -1.222656 7.472656 -1.019531 7.359375 -0.84375 C 7.253906 -0.675781 7.117188 -0.585938 6.953125 -0.578125 C 6.804688 -0.578125 6.269531 -0.53125 5.34375 -0.4375 C 4.414062 -0.34375 3.539062 -0.226562 2.71875 -0.09375 C 1.894531 0.03125 1.410156 0.148438 1.265625 0.265625 C 1.140625 0.160156 1.039062 0.03125 0.96875 -0.125 C 0.90625 -0.289062 0.875 -0.445312 0.875 -0.59375 C 0.875 -0.90625 1.007812 -1.171875 1.28125 -1.390625 C 1.5625 -1.609375 1.976562 -1.71875 2.53125 -1.71875 C 2.195312 -1.875 1.898438 -2.140625 1.640625 -2.515625 C 1.378906 -2.890625 1.25 -3.328125 1.25 -3.828125 C 1.25 -4.296875 1.367188 -4.765625 1.609375 -5.234375 C 1.859375 -5.703125 2.234375 -6.09375 2.734375 -6.40625 C 3.242188 -6.71875 3.875 -6.875 4.625 -6.875 C 5.269531 -6.875 5.785156 -6.742188 6.171875 -6.484375 C 6.554688 -6.222656 6.75 -5.816406 6.75 -5.265625 C 6.75 -4.890625 6.660156 -4.617188 6.484375 -4.453125 C 6.304688 -4.285156 6.0625 -4.203125 5.75 -4.203125 C 5.488281 -4.203125 5.210938 -4.257812 4.921875 -4.375 C 4.941406 -4.6875 4.882812 -4.960938 4.75 -5.203125 C 4.625 -5.453125 4.410156 -5.582031 4.109375 -5.59375 C 3.953125 -5.4375 3.804688 -5.21875 3.671875 -4.9375 C 3.546875 -4.664062 3.484375 -4.390625 3.484375 -4.109375 C 3.484375 -3.796875 3.566406 -3.488281 3.734375 -3.1875 C 3.910156 -2.894531 4.160156 -2.648438 4.484375 -2.453125 C 4.804688 -2.265625 5.171875 -2.171875 5.578125 -2.171875 C 5.734375 -2.171875 6 -2.195312 6.375 -2.25 C 6.601562 -2.300781 6.753906 -2.328125 6.828125 -2.328125 Z M 6.828125 -2.328125 "/></g></g><g style="fill:#174349;fill-opacity:1;"><g transform="translate(81.816132, 41.511783)"><path style="stroke:none" d="M 3.953125 0 C 3.222656 0 2.664062 -0.265625 2.28125 -0.796875 C 1.894531 -1.328125 1.695312 -1.992188 1.6875 -2.796875 L 1.6875 -8.984375 C 1.6875 -9.441406 1.613281 -9.765625 1.46875 -9.953125 C 1.332031 -10.140625 1.203125 -10.253906 1.078125 -10.296875 C 0.960938 -10.347656 0.894531 -10.378906 0.875 -10.390625 C 0.875 -10.503906 0.921875 -10.65625 1.015625 -10.84375 C 1.117188 -11.03125 1.273438 -11.191406 1.484375 -11.328125 C 1.691406 -11.472656 1.957031 -11.546875 2.28125 -11.546875 C 2.78125 -11.546875 3.179688 -11.347656 3.484375 -10.953125 C 3.796875 -10.554688 3.953125 -10.054688 3.953125 -9.453125 L 3.953125 -2.96875 C 3.953125 -2.601562 4.015625 -2.328125 4.140625 -2.140625 C 4.273438 -1.953125 4.460938 -1.859375 4.703125 -1.859375 L 5.578125 -1.859375 L 5.578125 0 Z M 3.953125 0 "/></g></g><g style="fill:#174349;fill-opacity:1;"><g transform="translate(86.609968, 41.511783)"><path style="stroke:none" d="M 9.21875 -1.859375 L 9.21875 0 L 8.734375 0 C 8.066406 0 7.46875 -0.179688 6.9375 -0.546875 C 6.40625 -0.160156 5.734375 0.03125 4.921875 0.03125 C 4.285156 0.03125 3.742188 -0.09375 3.296875 -0.34375 C 3.128906 -0.25 2.90625 -0.164062 2.625 -0.09375 C 2.351562 -0.03125 2.078125 0 1.796875 0 L 0 0 L 0 -1.859375 L 1.015625 -1.859375 L 1.015625 -4.046875 C 1.015625 -5.242188 1.128906 -6.15625 1.359375 -6.78125 C 1.597656 -7.414062 1.945312 -7.84375 2.40625 -8.0625 C 2.863281 -8.289062 3.503906 -8.40625 4.328125 -8.40625 C 5.046875 -8.40625 5.679688 -8.304688 6.234375 -8.109375 C 6.785156 -7.921875 7.253906 -7.507812 7.640625 -6.875 C 8.023438 -6.25 8.21875 -5.332031 8.21875 -4.125 C 8.21875 -3.21875 8.101562 -2.460938 7.875 -1.859375 Z M 4.875 -1.859375 C 5.300781 -1.859375 5.585938 -2.097656 5.734375 -2.578125 C 5.878906 -3.066406 5.953125 -3.617188 5.953125 -4.234375 C 5.953125 -5.003906 5.847656 -5.582031 5.640625 -5.96875 C 5.441406 -6.351562 5.078125 -6.546875 4.546875 -6.546875 C 4.210938 -6.546875 3.921875 -6.460938 3.671875 -6.296875 C 3.421875 -6.140625 3.296875 -5.878906 3.296875 -5.515625 L 3.296875 -1.859375 Z M 4.875 -1.859375 "/></g></g><g style="fill:#174349;fill-opacity:1;"><g transform="translate(95.042994, 41.511783)"><path style="stroke:none" d="M 6.375 -1.859375 L 6.375 0 L 3.875 0 C 3.257812 0 2.6875 -0.203125 2.15625 -0.609375 C 1.882812 -0.398438 1.632812 -0.242188 1.40625 -0.140625 C 1.1875 -0.046875 0.910156 0 0.578125 0 L 0 0 L 0 -1.859375 L 0.578125 -1.859375 C 0.878906 -1.859375 1.140625 -1.894531 1.359375 -1.96875 C 1.585938 -2.050781 1.816406 -2.1875 2.046875 -2.375 L 2.046875 -7.25 C 2.046875 -7.5625 2.132812 -7.832031 2.3125 -8.0625 C 2.5 -8.289062 2.789062 -8.40625 3.1875 -8.40625 C 3.582031 -8.40625 3.867188 -8.285156 4.046875 -8.046875 C 4.234375 -7.816406 4.328125 -7.535156 4.328125 -7.203125 L 4.328125 -2.96875 C 4.328125 -2.601562 4.390625 -2.328125 4.515625 -2.140625 C 4.640625 -1.953125 4.828125 -1.859375 5.078125 -1.859375 Z M 1.765625 3.765625 C 1.460938 3.765625 1.195312 3.648438 0.96875 3.421875 C 0.738281 3.203125 0.625 2.9375 0.625 2.625 C 0.625 2.3125 0.738281 2.039062 0.96875 1.8125 C 1.195312 1.59375 1.460938 1.484375 1.765625 1.484375 C 2.085938 1.484375 2.359375 1.59375 2.578125 1.8125 C 2.796875 2.039062 2.90625 2.3125 2.90625 2.625 C 2.90625 2.9375 2.796875 3.203125 2.578125 3.421875 C 2.359375 3.648438 2.085938 3.765625 1.765625 3.765625 Z M 4.609375 3.765625 C 4.304688 3.765625 4.039062 3.648438 3.8125 3.421875 C 3.582031 3.203125 3.46875 2.9375 3.46875 2.625 C 3.46875 2.3125 3.582031 2.039062 3.8125 1.8125 C 4.039062 1.59375 4.304688 1.484375 4.609375 1.484375 C 4.929688 1.484375 5.203125 1.59375 5.421875 1.8125 C 5.640625 2.039062 5.75 2.3125 5.75 2.625 C 5.75 2.9375 5.640625 3.203125 5.421875 3.421875 C 5.203125 3.648438 4.929688 3.765625 4.609375 3.765625 Z M 4.609375 3.765625 "/></g></g><g style="fill:#174349;fill-opacity:1;"><g transform="translate(100.624153, 41.511783)"><path style="stroke:none" d="M 13.359375 -8.40625 C 14.066406 -8.40625 14.609375 -8.082031 14.984375 -7.4375 C 15.367188 -6.789062 15.5625 -5.847656 15.5625 -4.609375 C 15.5625 -3.503906 15.328125 -2.457031 14.859375 -1.46875 C 14.390625 -0.488281 13.414062 0 11.9375 0 L 11.703125 0 C 10.585938 0 9.703125 -0.335938 9.046875 -1.015625 C 8.878906 -0.742188 8.648438 -0.503906 8.359375 -0.296875 C 8.078125 -0.0976562 7.71875 0 7.28125 0 L 4.671875 0 C 4.066406 0 3.492188 -0.203125 2.953125 -0.609375 C 2.691406 -0.398438 2.445312 -0.242188 2.21875 -0.140625 C 2 -0.046875 1.71875 0 1.375 0 L 0 0 L 0 -1.859375 L 1.03125 -1.859375 C 1.25 -1.859375 1.425781 -1.992188 1.5625 -2.265625 C 1.707031 -2.546875 1.78125 -2.867188 1.78125 -3.234375 L 1.78125 -6.171875 C 1.78125 -6.566406 1.847656 -6.875 1.984375 -7.09375 C 2.128906 -7.320312 2.441406 -7.4375 2.921875 -7.4375 C 3.398438 -7.4375 3.707031 -7.320312 3.84375 -7.09375 C 3.988281 -6.875 4.0625 -6.566406 4.0625 -6.171875 L 4.0625 -3.015625 C 4.0625 -2.640625 4.125 -2.351562 4.25 -2.15625 C 4.375 -1.96875 4.554688 -1.867188 4.796875 -1.859375 L 6.609375 -1.859375 C 6.929688 -1.859375 7.144531 -1.992188 7.25 -2.265625 C 7.363281 -2.546875 7.421875 -2.863281 7.421875 -3.21875 L 7.421875 -6.578125 C 7.421875 -7.046875 7.535156 -7.375 7.765625 -7.5625 C 7.992188 -7.757812 8.257812 -7.859375 8.5625 -7.859375 C 8.863281 -7.859375 9.125 -7.757812 9.34375 -7.5625 C 9.570312 -7.375 9.6875 -7.046875 9.6875 -6.578125 L 9.6875 -3.21875 C 9.6875 -2.3125 9.890625 -1.859375 10.296875 -1.859375 L 12.0625 -1.859375 C 12.394531 -1.859375 12.679688 -2.082031 12.921875 -2.53125 C 13.160156 -2.976562 13.28125 -3.5625 13.28125 -4.28125 C 13.28125 -5.15625 13.140625 -5.859375 12.859375 -6.390625 C 12.585938 -6.929688 12.289062 -7.269531 11.96875 -7.40625 C 12 -7.65625 12.128906 -7.882812 12.359375 -8.09375 C 12.585938 -8.300781 12.921875 -8.40625 13.359375 -8.40625 Z M 8.5625 -14.25 C 8.851562 -14.25 9.097656 -14.148438 9.296875 -13.953125 C 9.503906 -13.753906 9.609375 -13.503906 9.609375 -13.203125 C 9.609375 -12.910156 9.503906 -12.660156 9.296875 -12.453125 C 9.097656 -12.242188 8.851562 -12.140625 8.5625 -12.140625 C 8.257812 -12.140625 8.007812 -12.242188 7.8125 -12.453125 C 7.613281 -12.660156 7.515625 -12.910156 7.515625 -13.203125 C 7.515625 -13.503906 7.613281 -13.753906 7.8125 -13.953125 C 8.007812 -14.148438 8.257812 -14.25 8.5625 -14.25 Z M 7.140625 -11.8125 C 7.460938 -11.8125 7.734375 -11.703125 7.953125 -11.484375 C 8.171875 -11.265625 8.28125 -10.992188 8.28125 -10.671875 C 8.28125 -10.359375 8.171875 -10.09375 7.953125 -9.875 C 7.734375 -9.65625 7.460938 -9.546875 7.140625 -9.546875 C 6.835938 -9.546875 6.570312 -9.65625 6.34375 -9.875 C 6.113281 -10.09375 6 -10.359375 6 -10.671875 C 6 -10.992188 6.113281 -11.265625 6.34375 -11.484375 C 6.570312 -11.703125 6.835938 -11.8125 7.140625 -11.8125 Z M 9.984375 -11.8125 C 10.304688 -11.8125 10.578125 -11.703125 10.796875 -11.484375 C 11.015625 -11.265625 11.125 -10.992188 11.125 -10.671875 C 11.125 -10.359375 11.015625 -10.09375 10.796875 -9.875 C 10.578125 -9.65625 10.304688 -9.546875 9.984375 -9.546875 C 9.679688 -9.546875 9.414062 -9.65625 9.1875 -9.875 C 8.957031 -10.09375 8.84375 -10.359375 8.84375 -10.671875 C 8.84375 -10.992188 8.957031 -11.265625 9.1875 -11.484375 C 9.414062 -11.703125 9.679688 -11.8125 9.984375 -11.8125 Z M 9.984375 -11.8125 "/></g></g></g></svg>