<svg xmlns="http://www.w3.org/2000/svg" xmlns:xlink="http://www.w3.org/1999/xlink" width="48" zoomAndPan="magnify" viewBox="0 0 36 36.000001" height="48" preserveAspectRatio="xMidYMid meet" version="1.2"><defs/><g id="9340a9ea40"><path style="fill:none;stroke-width:2;stroke-linecap:round;stroke-linejoin:miter;stroke:#174349;stroke-opacity:1;stroke-miterlimit:4;" d="M 1.001752 0.997705 L 23.559333 0.997705 " transform="matrix(0,-0.72973,0.72973,0,32.00632,28.563039)"/><g style="fill:#174349;fill-opacity:1;"><g transform="translate(1.23902, 22.525666)"><path style="stroke:none" d="M 4.6875 -1.59375 C 4.832031 -1.59375 4.945312 -1.53125 5.03125 -1.40625 C 5.113281 -1.289062 5.15625 -1.15625 5.15625 -1 C 5.15625 -0.832031 5.117188 -0.691406 5.046875 -0.578125 C 4.972656 -0.460938 4.878906 -0.398438 4.765625 -0.390625 C 4.671875 -0.390625 4.304688 -0.359375 3.671875 -0.296875 C 3.035156 -0.234375 2.429688 -0.15625 1.859375 -0.0625 C 1.296875 0.0195312 0.960938 0.101562 0.859375 0.1875 C 0.785156 0.113281 0.722656 0.0234375 0.671875 -0.078125 C 0.617188 -0.191406 0.59375 -0.300781 0.59375 -0.40625 C 0.59375 -0.625 0.6875 -0.804688 0.875 -0.953125 C 1.0625 -1.097656 1.347656 -1.171875 1.734375 -1.171875 C 1.503906 -1.285156 1.300781 -1.46875 1.125 -1.71875 C 0.945312 -1.976562 0.859375 -2.28125 0.859375 -2.625 C 0.859375 -2.945312 0.941406 -3.265625 1.109375 -3.578125 C 1.273438 -3.898438 1.53125 -4.171875 1.875 -4.390625 C 2.226562 -4.609375 2.660156 -4.71875 3.171875 -4.71875 C 3.617188 -4.71875 3.972656 -4.625 4.234375 -4.4375 C 4.492188 -4.257812 4.625 -3.984375 4.625 -3.609375 C 4.625 -3.359375 4.5625 -3.171875 4.4375 -3.046875 C 4.320312 -2.929688 4.160156 -2.875 3.953125 -2.875 C 3.765625 -2.875 3.570312 -2.914062 3.375 -3 C 3.382812 -3.21875 3.34375 -3.410156 3.25 -3.578125 C 3.164062 -3.742188 3.019531 -3.832031 2.8125 -3.84375 C 2.707031 -3.726562 2.609375 -3.578125 2.515625 -3.390625 C 2.429688 -3.203125 2.390625 -3.007812 2.390625 -2.8125 C 2.390625 -2.601562 2.445312 -2.394531 2.5625 -2.1875 C 2.6875 -1.988281 2.859375 -1.820312 3.078125 -1.6875 C 3.296875 -1.550781 3.546875 -1.484375 3.828125 -1.484375 C 3.929688 -1.484375 4.113281 -1.503906 4.375 -1.546875 C 4.53125 -1.578125 4.632812 -1.59375 4.6875 -1.59375 Z M 4.6875 -1.59375 "/></g></g><g style="fill:#174349;fill-opacity:1;"><g transform="translate(6.45636, 22.525666)"><path style="stroke:none" d="M 2.71875 0 C 2.207031 0 1.816406 -0.179688 1.546875 -0.546875 C 1.285156 -0.910156 1.15625 -1.367188 1.15625 -1.921875 L 1.15625 -6.15625 C 1.15625 -6.476562 1.101562 -6.703125 1 -6.828125 C 0.90625 -6.953125 0.816406 -7.03125 0.734375 -7.0625 C 0.660156 -7.09375 0.613281 -7.113281 0.59375 -7.125 C 0.59375 -7.207031 0.625 -7.3125 0.6875 -7.4375 C 0.757812 -7.5625 0.867188 -7.671875 1.015625 -7.765625 C 1.160156 -7.867188 1.34375 -7.921875 1.5625 -7.921875 C 1.90625 -7.921875 2.179688 -7.785156 2.390625 -7.515625 C 2.609375 -7.242188 2.71875 -6.898438 2.71875 -6.484375 L 2.71875 -2.046875 C 2.71875 -1.785156 2.757812 -1.585938 2.84375 -1.453125 C 2.925781 -1.328125 3.054688 -1.265625 3.234375 -1.265625 L 3.828125 -1.265625 L 3.828125 0 Z M 2.71875 0 "/></g></g><g style="fill:#174349;fill-opacity:1;"><g transform="translate(9.745411, 22.525666)"><path style="stroke:none" d="M 6.328125 -1.265625 L 6.328125 0 L 5.984375 0 C 5.523438 0 5.113281 -0.125 4.75 -0.375 C 4.394531 -0.101562 3.9375 0.03125 3.375 0.03125 C 2.9375 0.03125 2.5625 -0.0546875 2.25 -0.234375 C 2.144531 -0.171875 2 -0.113281 1.8125 -0.0625 C 1.625 -0.0195312 1.429688 0 1.234375 0 L 0 0 L 0 -1.265625 L 0.703125 -1.265625 L 0.703125 -2.765625 C 0.703125 -3.597656 0.78125 -4.226562 0.9375 -4.65625 C 1.09375 -5.082031 1.328125 -5.375 1.640625 -5.53125 C 1.960938 -5.6875 2.40625 -5.765625 2.96875 -5.765625 C 3.457031 -5.765625 3.890625 -5.695312 4.265625 -5.5625 C 4.648438 -5.425781 4.972656 -5.140625 5.234375 -4.703125 C 5.503906 -4.273438 5.640625 -3.648438 5.640625 -2.828125 C 5.640625 -2.203125 5.5625 -1.679688 5.40625 -1.265625 Z M 3.34375 -1.265625 C 3.632812 -1.265625 3.828125 -1.429688 3.921875 -1.765625 C 4.023438 -2.097656 4.078125 -2.476562 4.078125 -2.90625 C 4.078125 -3.4375 4.003906 -3.832031 3.859375 -4.09375 C 3.722656 -4.351562 3.476562 -4.484375 3.125 -4.484375 C 2.882812 -4.484375 2.675781 -4.425781 2.5 -4.3125 C 2.332031 -4.207031 2.25 -4.03125 2.25 -3.78125 L 2.25 -1.265625 Z M 3.34375 -1.265625 "/></g></g><g style="fill:#174349;fill-opacity:1;"><g transform="translate(15.531305, 22.525666)"><path style="stroke:none" d="M 4.375 -1.265625 L 4.375 0 L 2.65625 0 C 2.238281 0 1.84375 -0.140625 1.46875 -0.421875 C 1.289062 -0.273438 1.125 -0.164062 0.96875 -0.09375 C 0.820312 -0.03125 0.628906 0 0.390625 0 L 0 0 L 0 -1.265625 L 0.390625 -1.265625 C 0.597656 -1.265625 0.773438 -1.289062 0.921875 -1.34375 C 1.078125 -1.40625 1.238281 -1.5 1.40625 -1.625 L 1.40625 -4.96875 C 1.40625 -5.1875 1.46875 -5.375 1.59375 -5.53125 C 1.71875 -5.6875 1.914062 -5.765625 2.1875 -5.765625 C 2.457031 -5.765625 2.65625 -5.679688 2.78125 -5.515625 C 2.90625 -5.359375 2.96875 -5.164062 2.96875 -4.9375 L 2.96875 -2.046875 C 2.96875 -1.785156 3.007812 -1.585938 3.09375 -1.453125 C 3.1875 -1.328125 3.316406 -1.265625 3.484375 -1.265625 Z M 1.21875 2.578125 C 1.007812 2.578125 0.828125 2.5 0.671875 2.34375 C 0.515625 2.195312 0.4375 2.015625 0.4375 1.796875 C 0.4375 1.578125 0.515625 1.390625 0.671875 1.234375 C 0.828125 1.085938 1.007812 1.015625 1.21875 1.015625 C 1.4375 1.015625 1.617188 1.085938 1.765625 1.234375 C 1.921875 1.390625 2 1.578125 2 1.796875 C 2 2.015625 1.921875 2.195312 1.765625 2.34375 C 1.617188 2.5 1.4375 2.578125 1.21875 2.578125 Z M 3.15625 2.578125 C 2.945312 2.578125 2.765625 2.5 2.609375 2.34375 C 2.453125 2.195312 2.375 2.015625 2.375 1.796875 C 2.375 1.578125 2.453125 1.390625 2.609375 1.234375 C 2.765625 1.085938 2.945312 1.015625 3.15625 1.015625 C 3.382812 1.015625 3.570312 1.085938 3.71875 1.234375 C 3.863281 1.390625 3.9375 1.578125 3.9375 1.796875 C 3.9375 2.015625 3.863281 2.195312 3.71875 2.34375 C 3.570312 2.5 3.382812 2.578125 3.15625 2.578125 Z M 3.15625 2.578125 "/></g></g><g style="fill:#174349;fill-opacity:1;"><g transform="translate(19.360537, 22.525666)"><path style="stroke:none" d="M 9.15625 -5.765625 C 9.644531 -5.765625 10.019531 -5.539062 10.28125 -5.09375 C 10.539062 -4.65625 10.671875 -4.007812 10.671875 -3.15625 C 10.671875 -2.40625 10.507812 -1.691406 10.1875 -1.015625 C 9.863281 -0.335938 9.195312 0 8.1875 0 L 8.03125 0 C 7.257812 0 6.648438 -0.234375 6.203125 -0.703125 C 6.085938 -0.515625 5.929688 -0.347656 5.734375 -0.203125 C 5.546875 -0.0664062 5.296875 0 4.984375 0 L 3.203125 0 C 2.785156 0 2.394531 -0.140625 2.03125 -0.421875 C 1.84375 -0.273438 1.671875 -0.164062 1.515625 -0.09375 C 1.367188 -0.03125 1.179688 0 0.953125 0 L 0 0 L 0 -1.265625 L 0.703125 -1.265625 C 0.859375 -1.265625 0.984375 -1.359375 1.078125 -1.546875 C 1.171875 -1.742188 1.21875 -1.96875 1.21875 -2.21875 L 1.21875 -4.234375 C 1.21875 -4.503906 1.265625 -4.710938 1.359375 -4.859375 C 1.460938 -5.015625 1.675781 -5.09375 2 -5.09375 C 2.332031 -5.09375 2.546875 -5.015625 2.640625 -4.859375 C 2.734375 -4.710938 2.78125 -4.503906 2.78125 -4.234375 L 2.78125 -2.0625 C 2.78125 -1.8125 2.820312 -1.617188 2.90625 -1.484375 C 3 -1.347656 3.125 -1.273438 3.28125 -1.265625 L 4.53125 -1.265625 C 4.75 -1.265625 4.894531 -1.359375 4.96875 -1.546875 C 5.050781 -1.742188 5.09375 -1.960938 5.09375 -2.203125 L 5.09375 -4.515625 C 5.09375 -4.828125 5.171875 -5.050781 5.328125 -5.1875 C 5.484375 -5.320312 5.664062 -5.390625 5.875 -5.390625 C 6.082031 -5.390625 6.257812 -5.320312 6.40625 -5.1875 C 6.5625 -5.050781 6.640625 -4.828125 6.640625 -4.515625 L 6.640625 -2.203125 C 6.640625 -1.578125 6.78125 -1.265625 7.0625 -1.265625 L 8.265625 -1.265625 C 8.492188 -1.265625 8.691406 -1.421875 8.859375 -1.734375 C 9.023438 -2.046875 9.109375 -2.445312 9.109375 -2.9375 C 9.109375 -3.539062 9.015625 -4.023438 8.828125 -4.390625 C 8.640625 -4.753906 8.429688 -4.984375 8.203125 -5.078125 C 8.234375 -5.253906 8.328125 -5.410156 8.484375 -5.546875 C 8.640625 -5.691406 8.863281 -5.765625 9.15625 -5.765625 Z M 5.875 -9.765625 C 6.070312 -9.765625 6.238281 -9.695312 6.375 -9.5625 C 6.519531 -9.425781 6.59375 -9.253906 6.59375 -9.046875 C 6.59375 -8.847656 6.519531 -8.675781 6.375 -8.53125 C 6.238281 -8.394531 6.070312 -8.328125 5.875 -8.328125 C 5.664062 -8.328125 5.492188 -8.394531 5.359375 -8.53125 C 5.222656 -8.675781 5.15625 -8.847656 5.15625 -9.046875 C 5.15625 -9.253906 5.222656 -9.425781 5.359375 -9.5625 C 5.492188 -9.695312 5.664062 -9.765625 5.875 -9.765625 Z M 4.90625 -8.09375 C 5.125 -8.09375 5.304688 -8.015625 5.453125 -7.859375 C 5.609375 -7.710938 5.6875 -7.535156 5.6875 -7.328125 C 5.6875 -7.109375 5.609375 -6.921875 5.453125 -6.765625 C 5.304688 -6.617188 5.125 -6.546875 4.90625 -6.546875 C 4.695312 -6.546875 4.515625 -6.617188 4.359375 -6.765625 C 4.203125 -6.921875 4.125 -7.109375 4.125 -7.328125 C 4.125 -7.535156 4.203125 -7.710938 4.359375 -7.859375 C 4.515625 -8.015625 4.695312 -8.09375 4.90625 -8.09375 Z M 6.84375 -8.09375 C 7.070312 -8.09375 7.257812 -8.015625 7.40625 -7.859375 C 7.550781 -7.710938 7.625 -7.535156 7.625 -7.328125 C 7.625 -7.109375 7.550781 -6.921875 7.40625 -6.765625 C 7.257812 -6.617188 7.070312 -6.546875 6.84375 -6.546875 C 6.632812 -6.546875 6.453125 -6.617188 6.296875 -6.765625 C 6.140625 -6.921875 6.0625 -7.109375 6.0625 -7.328125 C 6.0625 -7.535156 6.140625 -7.710938 6.296875 -7.859375 C 6.453125 -8.015625 6.632812 -8.09375 6.84375 -8.09375 Z M 6.84375 -8.09375 "/></g></g></g></svg>