<svg xmlns="http://www.w3.org/2000/svg" xmlns:xlink="http://www.w3.org/1999/xlink" width="100" zoomAndPan="magnify" viewBox="0 0 75 74.999997" height="100" preserveAspectRatio="xMidYMid meet" version="1.2"><defs/><g id="16e5f6004c"><path style="fill:none;stroke-width:3;stroke-linecap:round;stroke-linejoin:miter;stroke:#174349;stroke-opacity:1;stroke-miterlimit:4;" d="M 1.502599 1.499493 L 32.330727 1.499493 " transform="matrix(0.000000001309,-0.75,0.75,0.000000001309,57.680068,50.185543)"/><g style="fill:#174349;fill-opacity:1;"><g transform="translate(18.299061, 39.603873)"><path style="stroke:none" d="M 5.546875 -1.890625 C 5.722656 -1.890625 5.859375 -1.816406 5.953125 -1.671875 C 6.054688 -1.535156 6.109375 -1.375 6.109375 -1.1875 C 6.109375 -0.988281 6.066406 -0.820312 5.984375 -0.6875 C 5.898438 -0.550781 5.785156 -0.476562 5.640625 -0.46875 C 5.523438 -0.46875 5.09375 -0.425781 4.34375 -0.34375 C 3.59375 -0.269531 2.878906 -0.179688 2.203125 -0.078125 C 1.535156 0.0234375 1.144531 0.125 1.03125 0.21875 C 0.925781 0.125 0.847656 0.015625 0.796875 -0.109375 C 0.742188 -0.234375 0.71875 -0.359375 0.71875 -0.484375 C 0.71875 -0.742188 0.828125 -0.957031 1.046875 -1.125 C 1.265625 -1.300781 1.601562 -1.390625 2.0625 -1.390625 C 1.789062 -1.523438 1.546875 -1.742188 1.328125 -2.046875 C 1.117188 -2.347656 1.015625 -2.703125 1.015625 -3.109375 C 1.015625 -3.492188 1.113281 -3.875 1.3125 -4.25 C 1.507812 -4.625 1.8125 -4.941406 2.21875 -5.203125 C 2.632812 -5.460938 3.144531 -5.59375 3.75 -5.59375 C 4.28125 -5.59375 4.703125 -5.484375 5.015625 -5.265625 C 5.328125 -5.054688 5.484375 -4.726562 5.484375 -4.28125 C 5.484375 -3.976562 5.410156 -3.753906 5.265625 -3.609375 C 5.117188 -3.472656 4.921875 -3.40625 4.671875 -3.40625 C 4.453125 -3.40625 4.226562 -3.457031 4 -3.5625 C 4.019531 -3.8125 3.976562 -4.035156 3.875 -4.234375 C 3.769531 -4.429688 3.59375 -4.535156 3.34375 -4.546875 C 3.207031 -4.410156 3.085938 -4.234375 2.984375 -4.015625 C 2.878906 -3.796875 2.828125 -3.570312 2.828125 -3.34375 C 2.828125 -3.082031 2.894531 -2.832031 3.03125 -2.59375 C 3.175781 -2.351562 3.378906 -2.15625 3.640625 -2 C 3.898438 -1.84375 4.195312 -1.765625 4.53125 -1.765625 C 4.65625 -1.765625 4.867188 -1.785156 5.171875 -1.828125 C 5.359375 -1.867188 5.484375 -1.890625 5.546875 -1.890625 Z M 5.546875 -1.890625 "/></g></g><g style="fill:#174349;fill-opacity:1;"><g transform="translate(24.480511, 39.603873)"><path style="stroke:none" d="M 3.21875 0 C 2.613281 0 2.15625 -0.210938 1.84375 -0.640625 C 1.53125 -1.078125 1.367188 -1.625 1.359375 -2.28125 L 1.359375 -7.296875 C 1.359375 -7.671875 1.300781 -7.929688 1.1875 -8.078125 C 1.082031 -8.234375 0.976562 -8.332031 0.875 -8.375 C 0.78125 -8.414062 0.726562 -8.441406 0.71875 -8.453125 C 0.71875 -8.546875 0.753906 -8.664062 0.828125 -8.8125 C 0.910156 -8.96875 1.035156 -9.101562 1.203125 -9.21875 C 1.378906 -9.332031 1.59375 -9.390625 1.84375 -9.390625 C 2.25 -9.390625 2.578125 -9.226562 2.828125 -8.90625 C 3.085938 -8.582031 3.21875 -8.171875 3.21875 -7.671875 L 3.21875 -2.421875 C 3.21875 -2.117188 3.269531 -1.890625 3.375 -1.734375 C 3.476562 -1.578125 3.628906 -1.5 3.828125 -1.5 L 4.53125 -1.5 L 4.53125 0 Z M 3.21875 0 "/></g></g><g style="fill:#174349;fill-opacity:1;"><g transform="translate(28.375294, 39.603873)"><path style="stroke:none" d="M 7.5 -1.5 L 7.5 0 L 7.09375 0 C 6.550781 0 6.0625 -0.144531 5.625 -0.4375 C 5.195312 -0.125 4.65625 0.03125 4 0.03125 C 3.488281 0.03125 3.046875 -0.0703125 2.671875 -0.28125 C 2.535156 -0.207031 2.359375 -0.140625 2.140625 -0.078125 C 1.921875 -0.0234375 1.695312 0 1.46875 0 L 0 0 L 0 -1.5 L 0.828125 -1.5 L 0.828125 -3.28125 C 0.828125 -4.257812 0.921875 -5.003906 1.109375 -5.515625 C 1.296875 -6.023438 1.578125 -6.367188 1.953125 -6.546875 C 2.328125 -6.734375 2.847656 -6.828125 3.515625 -6.828125 C 4.097656 -6.828125 4.613281 -6.75 5.0625 -6.59375 C 5.519531 -6.4375 5.90625 -6.097656 6.21875 -5.578125 C 6.53125 -5.066406 6.6875 -4.328125 6.6875 -3.359375 C 6.6875 -2.617188 6.59375 -2 6.40625 -1.5 Z M 3.96875 -1.5 C 4.3125 -1.5 4.539062 -1.695312 4.65625 -2.09375 C 4.769531 -2.488281 4.828125 -2.9375 4.828125 -3.4375 C 4.828125 -4.0625 4.742188 -4.53125 4.578125 -4.84375 C 4.421875 -5.15625 4.128906 -5.3125 3.703125 -5.3125 C 3.421875 -5.3125 3.175781 -5.242188 2.96875 -5.109375 C 2.769531 -4.984375 2.671875 -4.773438 2.671875 -4.484375 L 2.671875 -1.5 Z M 3.96875 -1.5 "/></g></g><g style="fill:#174349;fill-opacity:1;"><g transform="translate(35.226795, 39.603873)"><path style="stroke:none" d="M 5.171875 -1.5 L 5.171875 0 L 3.140625 0 C 2.648438 0 2.1875 -0.164062 1.75 -0.5 C 1.53125 -0.320312 1.328125 -0.191406 1.140625 -0.109375 C 0.960938 -0.0351562 0.738281 0 0.46875 0 L 0 0 L 0 -1.5 L 0.46875 -1.5 C 0.71875 -1.5 0.929688 -1.53125 1.109375 -1.59375 C 1.285156 -1.664062 1.46875 -1.78125 1.65625 -1.9375 L 1.65625 -5.890625 C 1.65625 -6.140625 1.726562 -6.359375 1.875 -6.546875 C 2.03125 -6.734375 2.269531 -6.828125 2.59375 -6.828125 C 2.914062 -6.828125 3.148438 -6.726562 3.296875 -6.53125 C 3.441406 -6.34375 3.515625 -6.117188 3.515625 -5.859375 L 3.515625 -2.421875 C 3.515625 -2.117188 3.566406 -1.890625 3.671875 -1.734375 C 3.773438 -1.578125 3.925781 -1.5 4.125 -1.5 Z M 1.4375 3.046875 C 1.195312 3.046875 0.984375 2.957031 0.796875 2.78125 C 0.609375 2.601562 0.515625 2.382812 0.515625 2.125 C 0.515625 1.875 0.609375 1.65625 0.796875 1.46875 C 0.984375 1.289062 1.195312 1.203125 1.4375 1.203125 C 1.695312 1.203125 1.914062 1.289062 2.09375 1.46875 C 2.269531 1.65625 2.359375 1.875 2.359375 2.125 C 2.359375 2.382812 2.269531 2.601562 2.09375 2.78125 C 1.914062 2.957031 1.695312 3.046875 1.4375 3.046875 Z M 3.75 3.046875 C 3.5 3.046875 3.28125 2.957031 3.09375 2.78125 C 2.914062 2.601562 2.828125 2.382812 2.828125 2.125 C 2.828125 1.875 2.914062 1.65625 3.09375 1.46875 C 3.28125 1.289062 3.5 1.203125 3.75 1.203125 C 4.007812 1.203125 4.226562 1.289062 4.40625 1.46875 C 4.582031 1.65625 4.671875 1.875 4.671875 2.125 C 4.671875 2.382812 4.582031 2.601562 4.40625 2.78125 C 4.226562 2.957031 4.007812 3.046875 3.75 3.046875 Z M 3.75 3.046875 "/></g></g><g style="fill:#174349;fill-opacity:1;"><g transform="translate(39.761249, 39.603873)"><path style="stroke:none" d="M 10.84375 -6.828125 C 11.425781 -6.828125 11.867188 -6.566406 12.171875 -6.046875 C 12.484375 -5.523438 12.640625 -4.753906 12.640625 -3.734375 C 12.640625 -2.847656 12.445312 -2.003906 12.0625 -1.203125 C 11.6875 -0.398438 10.898438 0 9.703125 0 L 9.515625 0 C 8.597656 0 7.875 -0.273438 7.34375 -0.828125 C 7.21875 -0.609375 7.035156 -0.414062 6.796875 -0.25 C 6.566406 -0.0820312 6.273438 0 5.921875 0 L 3.796875 0 C 3.304688 0 2.84375 -0.164062 2.40625 -0.5 C 2.1875 -0.320312 1.984375 -0.191406 1.796875 -0.109375 C 1.617188 -0.0351562 1.394531 0 1.125 0 L 0 0 L 0 -1.5 L 0.84375 -1.5 C 1.019531 -1.5 1.164062 -1.613281 1.28125 -1.84375 C 1.394531 -2.070312 1.453125 -2.332031 1.453125 -2.625 L 1.453125 -5.015625 C 1.453125 -5.335938 1.507812 -5.585938 1.625 -5.765625 C 1.738281 -5.953125 1.988281 -6.046875 2.375 -6.046875 C 2.757812 -6.046875 3.007812 -5.953125 3.125 -5.765625 C 3.238281 -5.585938 3.296875 -5.335938 3.296875 -5.015625 L 3.296875 -2.453125 C 3.296875 -2.140625 3.347656 -1.90625 3.453125 -1.75 C 3.554688 -1.59375 3.703125 -1.507812 3.890625 -1.5 L 5.375 -1.5 C 5.632812 -1.5 5.804688 -1.613281 5.890625 -1.84375 C 5.984375 -2.070312 6.03125 -2.328125 6.03125 -2.609375 L 6.03125 -5.34375 C 6.03125 -5.726562 6.117188 -6 6.296875 -6.15625 C 6.484375 -6.3125 6.703125 -6.390625 6.953125 -6.390625 C 7.203125 -6.390625 7.414062 -6.3125 7.59375 -6.15625 C 7.78125 -6 7.875 -5.726562 7.875 -5.34375 L 7.875 -2.609375 C 7.875 -1.867188 8.035156 -1.5 8.359375 -1.5 L 9.796875 -1.5 C 10.066406 -1.5 10.300781 -1.679688 10.5 -2.046875 C 10.695312 -2.421875 10.796875 -2.898438 10.796875 -3.484375 C 10.796875 -4.191406 10.679688 -4.765625 10.453125 -5.203125 C 10.234375 -5.640625 9.988281 -5.910156 9.71875 -6.015625 C 9.75 -6.222656 9.859375 -6.410156 10.046875 -6.578125 C 10.234375 -6.742188 10.5 -6.828125 10.84375 -6.828125 Z M 6.953125 -11.578125 C 7.191406 -11.578125 7.394531 -11.492188 7.5625 -11.328125 C 7.726562 -11.171875 7.8125 -10.96875 7.8125 -10.71875 C 7.8125 -10.476562 7.726562 -10.273438 7.5625 -10.109375 C 7.394531 -9.941406 7.191406 -9.859375 6.953125 -9.859375 C 6.703125 -9.859375 6.492188 -9.941406 6.328125 -10.109375 C 6.171875 -10.273438 6.09375 -10.476562 6.09375 -10.71875 C 6.09375 -10.96875 6.171875 -11.171875 6.328125 -11.328125 C 6.492188 -11.492188 6.703125 -11.578125 6.953125 -11.578125 Z M 5.796875 -9.59375 C 6.054688 -9.59375 6.273438 -9.503906 6.453125 -9.328125 C 6.628906 -9.148438 6.71875 -8.929688 6.71875 -8.671875 C 6.71875 -8.410156 6.628906 -8.191406 6.453125 -8.015625 C 6.273438 -7.835938 6.054688 -7.75 5.796875 -7.75 C 5.554688 -7.75 5.34375 -7.835938 5.15625 -8.015625 C 4.96875 -8.191406 4.875 -8.410156 4.875 -8.671875 C 4.875 -8.929688 4.96875 -9.148438 5.15625 -9.328125 C 5.34375 -9.503906 5.554688 -9.59375 5.796875 -9.59375 Z M 8.109375 -9.59375 C 8.367188 -9.59375 8.585938 -9.503906 8.765625 -9.328125 C 8.941406 -9.148438 9.03125 -8.929688 9.03125 -8.671875 C 9.03125 -8.410156 8.941406 -8.191406 8.765625 -8.015625 C 8.585938 -7.835938 8.367188 -7.75 8.109375 -7.75 C 7.859375 -7.75 7.640625 -7.835938 7.453125 -8.015625 C 7.273438 -8.191406 7.1875 -8.410156 7.1875 -8.671875 C 7.1875 -8.929688 7.273438 -9.148438 7.453125 -9.328125 C 7.640625 -9.503906 7.859375 -9.59375 8.109375 -9.59375 Z M 8.109375 -9.59375 "/></g></g></g></svg>