<svg xmlns="http://www.w3.org/2000/svg" xmlns:xlink="http://www.w3.org/1999/xlink" width="100" zoomAndPan="magnify" viewBox="0 0 75 74.999997" height="100" preserveAspectRatio="xMidYMid meet" version="1.2"><defs/><g id="710c9dcfbf"><path style="fill:none;stroke-width:2;stroke-linecap:round;stroke-linejoin:miter;stroke:#174349;stroke-opacity:1;stroke-miterlimit:4;" d="M 0.999993 0.998968 L 30.999996 0.998968 " transform="matrix(0.000000001309,-0.75,0.75,0.000000001309,52.114056,49.499995)"/><g style="fill:#174349;fill-opacity:1;"><g transform="translate(21.990626, 40.049996)"><path style="stroke:none" d="M 4.34375 -1.484375 C 4.476562 -1.484375 4.582031 -1.425781 4.65625 -1.3125 C 4.738281 -1.195312 4.78125 -1.066406 4.78125 -0.921875 C 4.78125 -0.773438 4.742188 -0.644531 4.671875 -0.53125 C 4.609375 -0.425781 4.523438 -0.367188 4.421875 -0.359375 C 4.328125 -0.359375 3.984375 -0.328125 3.390625 -0.265625 C 2.804688 -0.210938 2.253906 -0.144531 1.734375 -0.0625 C 1.210938 0.0195312 0.898438 0.0976562 0.796875 0.171875 C 0.722656 0.0976562 0.664062 0.015625 0.625 -0.078125 C 0.582031 -0.179688 0.5625 -0.28125 0.5625 -0.375 C 0.5625 -0.570312 0.644531 -0.738281 0.8125 -0.875 C 0.988281 -1.019531 1.253906 -1.09375 1.609375 -1.09375 C 1.398438 -1.195312 1.210938 -1.363281 1.046875 -1.59375 C 0.878906 -1.832031 0.796875 -2.113281 0.796875 -2.4375 C 0.796875 -2.726562 0.867188 -3.019531 1.015625 -3.3125 C 1.171875 -3.613281 1.410156 -3.863281 1.734375 -4.0625 C 2.054688 -4.269531 2.457031 -4.375 2.9375 -4.375 C 3.351562 -4.375 3.679688 -4.289062 3.921875 -4.125 C 4.171875 -3.957031 4.296875 -3.695312 4.296875 -3.34375 C 4.296875 -3.113281 4.238281 -2.941406 4.125 -2.828125 C 4.007812 -2.722656 3.851562 -2.671875 3.65625 -2.671875 C 3.488281 -2.671875 3.3125 -2.707031 3.125 -2.78125 C 3.132812 -2.976562 3.097656 -3.15625 3.015625 -3.3125 C 2.941406 -3.46875 2.804688 -3.550781 2.609375 -3.5625 C 2.503906 -3.457031 2.410156 -3.316406 2.328125 -3.140625 C 2.253906 -2.960938 2.21875 -2.785156 2.21875 -2.609375 C 2.21875 -2.410156 2.269531 -2.21875 2.375 -2.03125 C 2.488281 -1.84375 2.644531 -1.6875 2.84375 -1.5625 C 3.050781 -1.4375 3.285156 -1.375 3.546875 -1.375 C 3.640625 -1.375 3.804688 -1.394531 4.046875 -1.4375 C 4.191406 -1.46875 4.289062 -1.484375 4.34375 -1.484375 Z M 4.34375 -1.484375 "/></g></g><g style="fill:#174349;fill-opacity:1;"><g transform="translate(26.827123, 40.049996)"><path style="stroke:none" d="M 2.515625 0 C 2.046875 0 1.6875 -0.164062 1.4375 -0.5 C 1.195312 -0.84375 1.070312 -1.269531 1.0625 -1.78125 L 1.0625 -5.703125 C 1.0625 -6.003906 1.015625 -6.210938 0.921875 -6.328125 C 0.835938 -6.453125 0.757812 -6.523438 0.6875 -6.546875 C 0.613281 -6.578125 0.570312 -6.597656 0.5625 -6.609375 C 0.5625 -6.679688 0.59375 -6.773438 0.65625 -6.890625 C 0.71875 -7.015625 0.8125 -7.117188 0.9375 -7.203125 C 1.070312 -7.296875 1.242188 -7.34375 1.453125 -7.34375 C 1.765625 -7.34375 2.019531 -7.21875 2.21875 -6.96875 C 2.414062 -6.71875 2.515625 -6.394531 2.515625 -6 L 2.515625 -1.890625 C 2.515625 -1.648438 2.554688 -1.46875 2.640625 -1.34375 C 2.722656 -1.226562 2.84375 -1.171875 3 -1.171875 L 3.546875 -1.171875 L 3.546875 0 Z M 2.515625 0 "/></g></g><g style="fill:#174349;fill-opacity:1;"><g transform="translate(29.874215, 40.049996)"><path style="stroke:none" d="M 5.859375 -1.171875 L 5.859375 0 L 5.546875 0 C 5.128906 0 4.75 -0.113281 4.40625 -0.34375 C 4.070312 -0.101562 3.644531 0.015625 3.125 0.015625 C 2.726562 0.015625 2.382812 -0.0625 2.09375 -0.21875 C 1.988281 -0.164062 1.847656 -0.113281 1.671875 -0.0625 C 1.492188 -0.0195312 1.316406 0 1.140625 0 L 0 0 L 0 -1.171875 L 0.640625 -1.171875 L 0.640625 -2.5625 C 0.640625 -3.332031 0.710938 -3.914062 0.859375 -4.3125 C 1.015625 -4.71875 1.238281 -4.988281 1.53125 -5.125 C 1.820312 -5.269531 2.226562 -5.34375 2.75 -5.34375 C 3.207031 -5.34375 3.613281 -5.28125 3.96875 -5.15625 C 4.320312 -5.03125 4.617188 -4.765625 4.859375 -4.359375 C 5.109375 -3.960938 5.234375 -3.382812 5.234375 -2.625 C 5.234375 -2.039062 5.15625 -1.554688 5 -1.171875 Z M 3.109375 -1.171875 C 3.367188 -1.171875 3.546875 -1.328125 3.640625 -1.640625 C 3.734375 -1.953125 3.78125 -2.300781 3.78125 -2.6875 C 3.78125 -3.175781 3.710938 -3.539062 3.578125 -3.78125 C 3.453125 -4.03125 3.222656 -4.15625 2.890625 -4.15625 C 2.671875 -4.15625 2.484375 -4.101562 2.328125 -4 C 2.171875 -3.894531 2.09375 -3.726562 2.09375 -3.5 L 2.09375 -1.171875 Z M 3.109375 -1.171875 "/></g></g><g style="fill:#174349;fill-opacity:1;"><g transform="translate(35.234474, 40.049996)"><path style="stroke:none" d="M 4.046875 -1.171875 L 4.046875 0 L 2.453125 0 C 2.066406 0 1.707031 -0.128906 1.375 -0.390625 C 1.195312 -0.253906 1.035156 -0.15625 0.890625 -0.09375 C 0.753906 -0.03125 0.578125 0 0.359375 0 L 0 0 L 0 -1.171875 L 0.359375 -1.171875 C 0.554688 -1.171875 0.722656 -1.195312 0.859375 -1.25 C 1.003906 -1.300781 1.148438 -1.390625 1.296875 -1.515625 L 1.296875 -4.609375 C 1.296875 -4.804688 1.351562 -4.976562 1.46875 -5.125 C 1.582031 -5.269531 1.769531 -5.34375 2.03125 -5.34375 C 2.28125 -5.34375 2.460938 -5.265625 2.578125 -5.109375 C 2.691406 -4.960938 2.75 -4.785156 2.75 -4.578125 L 2.75 -1.890625 C 2.75 -1.648438 2.789062 -1.46875 2.875 -1.34375 C 2.957031 -1.226562 3.070312 -1.171875 3.21875 -1.171875 Z M 1.125 2.40625 C 0.9375 2.40625 0.769531 2.332031 0.625 2.1875 C 0.476562 2.050781 0.40625 1.878906 0.40625 1.671875 C 0.40625 1.472656 0.476562 1.300781 0.625 1.15625 C 0.769531 1.019531 0.9375 0.953125 1.125 0.953125 C 1.332031 0.953125 1.503906 1.019531 1.640625 1.15625 C 1.785156 1.300781 1.859375 1.472656 1.859375 1.671875 C 1.859375 1.878906 1.785156 2.050781 1.640625 2.1875 C 1.503906 2.332031 1.332031 2.40625 1.125 2.40625 Z M 2.9375 2.40625 C 2.738281 2.40625 2.566406 2.332031 2.421875 2.1875 C 2.273438 2.050781 2.203125 1.878906 2.203125 1.671875 C 2.203125 1.472656 2.273438 1.300781 2.421875 1.15625 C 2.566406 1.019531 2.738281 0.953125 2.9375 0.953125 C 3.144531 0.953125 3.316406 1.019531 3.453125 1.15625 C 3.585938 1.300781 3.65625 1.472656 3.65625 1.671875 C 3.65625 1.878906 3.585938 2.050781 3.453125 2.1875 C 3.316406 2.332031 3.144531 2.40625 2.9375 2.40625 Z M 2.9375 2.40625 "/></g></g><g style="fill:#174349;fill-opacity:1;"><g transform="translate(38.78201, 40.049996)"><path style="stroke:none" d="M 8.484375 -5.34375 C 8.941406 -5.34375 9.289062 -5.132812 9.53125 -4.71875 C 9.769531 -4.3125 9.890625 -3.710938 9.890625 -2.921875 C 9.890625 -2.222656 9.738281 -1.5625 9.4375 -0.9375 C 9.144531 -0.3125 8.53125 0 7.59375 0 L 7.4375 0 C 6.726562 0 6.164062 -0.210938 5.75 -0.640625 C 5.644531 -0.472656 5.5 -0.320312 5.3125 -0.1875 C 5.132812 -0.0625 4.90625 0 4.625 0 L 2.96875 0 C 2.582031 0 2.21875 -0.128906 1.875 -0.390625 C 1.707031 -0.253906 1.550781 -0.15625 1.40625 -0.09375 C 1.269531 -0.03125 1.09375 0 0.875 0 L 0 0 L 0 -1.171875 L 0.65625 -1.171875 C 0.800781 -1.171875 0.914062 -1.257812 1 -1.4375 C 1.09375 -1.625 1.140625 -1.832031 1.140625 -2.0625 L 1.140625 -3.921875 C 1.140625 -4.179688 1.179688 -4.378906 1.265625 -4.515625 C 1.359375 -4.660156 1.554688 -4.734375 1.859375 -4.734375 C 2.160156 -4.734375 2.351562 -4.660156 2.4375 -4.515625 C 2.53125 -4.378906 2.578125 -4.179688 2.578125 -3.921875 L 2.578125 -1.90625 C 2.578125 -1.675781 2.617188 -1.5 2.703125 -1.375 C 2.785156 -1.25 2.898438 -1.179688 3.046875 -1.171875 L 4.203125 -1.171875 C 4.398438 -1.171875 4.535156 -1.257812 4.609375 -1.4375 C 4.679688 -1.625 4.71875 -1.828125 4.71875 -2.046875 L 4.71875 -4.1875 C 4.71875 -4.476562 4.789062 -4.6875 4.9375 -4.8125 C 5.082031 -4.9375 5.25 -5 5.4375 -5 C 5.632812 -5 5.800781 -4.9375 5.9375 -4.8125 C 6.082031 -4.6875 6.15625 -4.476562 6.15625 -4.1875 L 6.15625 -2.046875 C 6.15625 -1.460938 6.285156 -1.171875 6.546875 -1.171875 L 7.671875 -1.171875 C 7.878906 -1.171875 8.054688 -1.3125 8.203125 -1.59375 C 8.359375 -1.882812 8.4375 -2.257812 8.4375 -2.71875 C 8.4375 -3.28125 8.347656 -3.726562 8.171875 -4.0625 C 8.003906 -4.40625 7.816406 -4.617188 7.609375 -4.703125 C 7.628906 -4.867188 7.710938 -5.015625 7.859375 -5.140625 C 8.003906 -5.273438 8.210938 -5.34375 8.484375 -5.34375 Z M 5.4375 -9.046875 C 5.625 -9.046875 5.78125 -8.984375 5.90625 -8.859375 C 6.039062 -8.734375 6.109375 -8.578125 6.109375 -8.390625 C 6.109375 -8.203125 6.039062 -8.039062 5.90625 -7.90625 C 5.78125 -7.78125 5.625 -7.71875 5.4375 -7.71875 C 5.238281 -7.71875 5.078125 -7.78125 4.953125 -7.90625 C 4.828125 -8.039062 4.765625 -8.203125 4.765625 -8.390625 C 4.765625 -8.578125 4.828125 -8.734375 4.953125 -8.859375 C 5.078125 -8.984375 5.238281 -9.046875 5.4375 -9.046875 Z M 4.53125 -7.5 C 4.738281 -7.5 4.910156 -7.425781 5.046875 -7.28125 C 5.191406 -7.144531 5.265625 -6.976562 5.265625 -6.78125 C 5.265625 -6.582031 5.191406 -6.410156 5.046875 -6.265625 C 4.910156 -6.128906 4.738281 -6.0625 4.53125 -6.0625 C 4.34375 -6.0625 4.175781 -6.128906 4.03125 -6.265625 C 3.882812 -6.410156 3.8125 -6.582031 3.8125 -6.78125 C 3.8125 -6.976562 3.882812 -7.144531 4.03125 -7.28125 C 4.175781 -7.425781 4.34375 -7.5 4.53125 -7.5 Z M 6.34375 -7.5 C 6.550781 -7.5 6.722656 -7.425781 6.859375 -7.28125 C 6.992188 -7.144531 7.0625 -6.976562 7.0625 -6.78125 C 7.0625 -6.582031 6.992188 -6.410156 6.859375 -6.265625 C 6.722656 -6.128906 6.550781 -6.0625 6.34375 -6.0625 C 6.144531 -6.0625 5.972656 -6.128906 5.828125 -6.265625 C 5.679688 -6.410156 5.609375 -6.582031 5.609375 -6.78125 C 5.609375 -6.976562 5.679688 -7.144531 5.828125 -7.28125 C 5.972656 -7.425781 6.144531 -7.5 6.34375 -7.5 Z M 6.34375 -7.5 "/></g></g></g></svg>