<svg xmlns="http://www.w3.org/2000/svg" xmlns:xlink="http://www.w3.org/1999/xlink" width="150" zoomAndPan="magnify" viewBox="0 0 112.5 112.499997" height="150" preserveAspectRatio="xMidYMid meet" version="1.2"><defs/><g id="2475b28b8a"><path style="fill:none;stroke-width:3;stroke-linecap:round;stroke-linejoin:miter;stroke:#174349;stroke-opacity:1;stroke-miterlimit:4;" d="M 1.500874 1.500131 L 46.502081 1.500131 " transform="matrix(0.0000000013032,-0.746681,0.746681,0.0000000013032,77.825193,73.921456)"/><g style="fill:#174349;fill-opacity:1;"><g transform="translate(32.839985, 59.809179)"><path style="stroke:none" d="M 6.484375 -2.203125 C 6.691406 -2.203125 6.851562 -2.117188 6.96875 -1.953125 C 7.082031 -1.785156 7.140625 -1.59375 7.140625 -1.375 C 7.140625 -1.15625 7.085938 -0.960938 6.984375 -0.796875 C 6.890625 -0.640625 6.757812 -0.554688 6.59375 -0.546875 C 6.457031 -0.546875 5.945312 -0.5 5.0625 -0.40625 C 4.1875 -0.320312 3.359375 -0.21875 2.578125 -0.09375 C 1.796875 0.0195312 1.335938 0.132812 1.203125 0.25 C 1.085938 0.144531 0.992188 0.0195312 0.921875 -0.125 C 0.859375 -0.269531 0.828125 -0.414062 0.828125 -0.5625 C 0.828125 -0.863281 0.957031 -1.113281 1.21875 -1.3125 C 1.476562 -1.519531 1.875 -1.625 2.40625 -1.625 C 2.082031 -1.78125 1.796875 -2.035156 1.546875 -2.390625 C 1.296875 -2.742188 1.171875 -3.160156 1.171875 -3.640625 C 1.171875 -4.078125 1.285156 -4.515625 1.515625 -4.953125 C 1.753906 -5.398438 2.113281 -5.773438 2.59375 -6.078125 C 3.082031 -6.378906 3.679688 -6.53125 4.390625 -6.53125 C 5.003906 -6.53125 5.492188 -6.40625 5.859375 -6.15625 C 6.222656 -5.90625 6.40625 -5.519531 6.40625 -5 C 6.40625 -4.644531 6.316406 -4.382812 6.140625 -4.21875 C 5.972656 -4.0625 5.75 -3.984375 5.46875 -3.984375 C 5.207031 -3.984375 4.941406 -4.039062 4.671875 -4.15625 C 4.691406 -4.445312 4.640625 -4.707031 4.515625 -4.9375 C 4.390625 -5.175781 4.1875 -5.300781 3.90625 -5.3125 C 3.75 -5.15625 3.609375 -4.945312 3.484375 -4.6875 C 3.367188 -4.425781 3.3125 -4.164062 3.3125 -3.90625 C 3.3125 -3.601562 3.390625 -3.3125 3.546875 -3.03125 C 3.710938 -2.75 3.945312 -2.515625 4.25 -2.328125 C 4.5625 -2.148438 4.910156 -2.0625 5.296875 -2.0625 C 5.441406 -2.0625 5.691406 -2.085938 6.046875 -2.140625 C 6.265625 -2.179688 6.410156 -2.203125 6.484375 -2.203125 Z M 6.484375 -2.203125 "/></g></g><g style="fill:#174349;fill-opacity:1;"><g transform="translate(40.062631, 59.809179)"><path style="stroke:none" d="M 3.75 0 C 3.050781 0 2.519531 -0.25 2.15625 -0.75 C 1.789062 -1.257812 1.601562 -1.894531 1.59375 -2.65625 L 1.59375 -8.515625 C 1.59375 -8.960938 1.523438 -9.273438 1.390625 -9.453125 C 1.265625 -9.628906 1.144531 -9.738281 1.03125 -9.78125 C 0.914062 -9.820312 0.847656 -9.847656 0.828125 -9.859375 C 0.828125 -9.972656 0.875 -10.117188 0.96875 -10.296875 C 1.0625 -10.472656 1.207031 -10.628906 1.40625 -10.765625 C 1.601562 -10.898438 1.851562 -10.96875 2.15625 -10.96875 C 2.632812 -10.96875 3.019531 -10.773438 3.3125 -10.390625 C 3.601562 -10.015625 3.75 -9.539062 3.75 -8.96875 L 3.75 -2.828125 C 3.75 -2.472656 3.8125 -2.207031 3.9375 -2.03125 C 4.0625 -1.851562 4.238281 -1.765625 4.46875 -1.765625 L 5.296875 -1.765625 L 5.296875 0 Z M 3.75 0 "/></g></g><g style="fill:#174349;fill-opacity:1;"><g transform="translate(44.613045, 59.809179)"><path style="stroke:none" d="M 8.75 -1.765625 L 8.75 0 L 8.28125 0 C 7.65625 0 7.085938 -0.171875 6.578125 -0.515625 C 6.078125 -0.148438 5.441406 0.03125 4.671875 0.03125 C 4.066406 0.03125 3.550781 -0.0859375 3.125 -0.328125 C 2.96875 -0.242188 2.757812 -0.164062 2.5 -0.09375 C 2.238281 -0.03125 1.972656 0 1.703125 0 L 0 0 L 0 -1.765625 L 0.96875 -1.765625 L 0.96875 -3.84375 C 0.96875 -4.976562 1.078125 -5.84375 1.296875 -6.4375 C 1.515625 -7.039062 1.84375 -7.445312 2.28125 -7.65625 C 2.71875 -7.863281 3.328125 -7.96875 4.109375 -7.96875 C 4.785156 -7.96875 5.382812 -7.875 5.90625 -7.6875 C 6.4375 -7.507812 6.882812 -7.117188 7.25 -6.515625 C 7.625 -5.921875 7.8125 -5.054688 7.8125 -3.921875 C 7.8125 -3.054688 7.695312 -2.335938 7.46875 -1.765625 Z M 4.640625 -1.765625 C 5.035156 -1.765625 5.300781 -1.992188 5.4375 -2.453125 C 5.570312 -2.910156 5.640625 -3.429688 5.640625 -4.015625 C 5.640625 -4.742188 5.539062 -5.289062 5.34375 -5.65625 C 5.15625 -6.03125 4.8125 -6.21875 4.3125 -6.21875 C 4 -6.21875 3.722656 -6.140625 3.484375 -5.984375 C 3.242188 -5.828125 3.125 -5.578125 3.125 -5.234375 L 3.125 -1.765625 Z M 4.640625 -1.765625 "/></g></g><g style="fill:#174349;fill-opacity:1;"><g transform="translate(52.617857, 59.809179)"><path style="stroke:none" d="M 6.046875 -1.765625 L 6.046875 0 L 3.671875 0 C 3.097656 0 2.554688 -0.191406 2.046875 -0.578125 C 1.785156 -0.378906 1.550781 -0.234375 1.34375 -0.140625 C 1.132812 -0.046875 0.867188 0 0.546875 0 L 0 0 L 0 -1.765625 L 0.546875 -1.765625 C 0.835938 -1.765625 1.085938 -1.800781 1.296875 -1.875 C 1.503906 -1.957031 1.71875 -2.085938 1.9375 -2.265625 L 1.9375 -6.875 C 1.9375 -7.175781 2.019531 -7.429688 2.1875 -7.640625 C 2.363281 -7.859375 2.640625 -7.96875 3.015625 -7.96875 C 3.398438 -7.96875 3.675781 -7.859375 3.84375 -7.640625 C 4.019531 -7.421875 4.109375 -7.15625 4.109375 -6.84375 L 4.109375 -2.828125 C 4.109375 -2.472656 4.164062 -2.207031 4.28125 -2.03125 C 4.40625 -1.851562 4.582031 -1.765625 4.8125 -1.765625 Z M 1.671875 3.5625 C 1.378906 3.5625 1.125 3.457031 0.90625 3.25 C 0.695312 3.039062 0.59375 2.785156 0.59375 2.484375 C 0.59375 2.179688 0.695312 1.925781 0.90625 1.71875 C 1.125 1.507812 1.378906 1.40625 1.671875 1.40625 C 1.972656 1.40625 2.226562 1.507812 2.4375 1.71875 C 2.644531 1.925781 2.75 2.179688 2.75 2.484375 C 2.75 2.785156 2.644531 3.039062 2.4375 3.25 C 2.226562 3.457031 1.972656 3.5625 1.671875 3.5625 Z M 4.359375 3.5625 C 4.066406 3.5625 3.8125 3.457031 3.59375 3.25 C 3.382812 3.039062 3.28125 2.785156 3.28125 2.484375 C 3.28125 2.179688 3.382812 1.925781 3.59375 1.71875 C 3.8125 1.507812 4.066406 1.40625 4.359375 1.40625 C 4.671875 1.40625 4.925781 1.507812 5.125 1.71875 C 5.332031 1.925781 5.4375 2.179688 5.4375 2.484375 C 5.4375 2.785156 5.332031 3.039062 5.125 3.25 C 4.925781 3.457031 4.671875 3.5625 4.359375 3.5625 Z M 4.359375 3.5625 "/></g></g><g style="fill:#174349;fill-opacity:1;"><g transform="translate(57.915615, 59.809179)"><path style="stroke:none" d="M 12.671875 -7.96875 C 13.347656 -7.96875 13.863281 -7.660156 14.21875 -7.046875 C 14.582031 -6.441406 14.765625 -5.550781 14.765625 -4.375 C 14.765625 -3.332031 14.539062 -2.34375 14.09375 -1.40625 C 13.65625 -0.46875 12.734375 0 11.328125 0 L 11.109375 0 C 10.046875 0 9.207031 -0.320312 8.59375 -0.96875 C 8.4375 -0.707031 8.222656 -0.476562 7.953125 -0.28125 C 7.679688 -0.09375 7.332031 0 6.90625 0 L 4.4375 0 C 3.863281 0 3.320312 -0.191406 2.8125 -0.578125 C 2.550781 -0.378906 2.316406 -0.234375 2.109375 -0.140625 C 1.898438 -0.046875 1.632812 0 1.3125 0 L 0 0 L 0 -1.765625 L 0.984375 -1.765625 C 1.191406 -1.765625 1.359375 -1.894531 1.484375 -2.15625 C 1.617188 -2.425781 1.6875 -2.734375 1.6875 -3.078125 L 1.6875 -5.859375 C 1.6875 -6.234375 1.753906 -6.523438 1.890625 -6.734375 C 2.023438 -6.953125 2.320312 -7.0625 2.78125 -7.0625 C 3.226562 -7.0625 3.519531 -6.953125 3.65625 -6.734375 C 3.789062 -6.523438 3.859375 -6.234375 3.859375 -5.859375 L 3.859375 -2.859375 C 3.859375 -2.503906 3.914062 -2.234375 4.03125 -2.046875 C 4.15625 -1.867188 4.328125 -1.773438 4.546875 -1.765625 L 6.28125 -1.765625 C 6.582031 -1.765625 6.785156 -1.894531 6.890625 -2.15625 C 6.992188 -2.425781 7.046875 -2.726562 7.046875 -3.0625 L 7.046875 -6.25 C 7.046875 -6.6875 7.148438 -6.992188 7.359375 -7.171875 C 7.578125 -7.359375 7.832031 -7.453125 8.125 -7.453125 C 8.40625 -7.453125 8.65625 -7.359375 8.875 -7.171875 C 9.09375 -6.992188 9.203125 -6.6875 9.203125 -6.25 L 9.203125 -3.0625 C 9.203125 -2.195312 9.390625 -1.765625 9.765625 -1.765625 L 11.4375 -1.765625 C 11.757812 -1.765625 12.035156 -1.976562 12.265625 -2.40625 C 12.492188 -2.832031 12.609375 -3.382812 12.609375 -4.0625 C 12.609375 -4.894531 12.476562 -5.566406 12.21875 -6.078125 C 11.957031 -6.585938 11.671875 -6.90625 11.359375 -7.03125 C 11.390625 -7.269531 11.515625 -7.484375 11.734375 -7.671875 C 11.953125 -7.867188 12.265625 -7.96875 12.671875 -7.96875 Z M 8.125 -13.515625 C 8.40625 -13.515625 8.640625 -13.421875 8.828125 -13.234375 C 9.023438 -13.046875 9.125 -12.804688 9.125 -12.515625 C 9.125 -12.242188 9.023438 -12.007812 8.828125 -11.8125 C 8.640625 -11.625 8.40625 -11.53125 8.125 -11.53125 C 7.832031 -11.53125 7.59375 -11.625 7.40625 -11.8125 C 7.21875 -12.007812 7.125 -12.242188 7.125 -12.515625 C 7.125 -12.804688 7.21875 -13.046875 7.40625 -13.234375 C 7.59375 -13.421875 7.832031 -13.515625 8.125 -13.515625 Z M 6.78125 -11.203125 C 7.082031 -11.203125 7.335938 -11.097656 7.546875 -10.890625 C 7.753906 -10.679688 7.859375 -10.425781 7.859375 -10.125 C 7.859375 -9.832031 7.753906 -9.578125 7.546875 -9.359375 C 7.335938 -9.148438 7.082031 -9.046875 6.78125 -9.046875 C 6.488281 -9.046875 6.234375 -9.148438 6.015625 -9.359375 C 5.804688 -9.578125 5.703125 -9.832031 5.703125 -10.125 C 5.703125 -10.425781 5.804688 -10.679688 6.015625 -10.890625 C 6.234375 -11.097656 6.488281 -11.203125 6.78125 -11.203125 Z M 9.46875 -11.203125 C 9.78125 -11.203125 10.035156 -11.097656 10.234375 -10.890625 C 10.441406 -10.679688 10.546875 -10.425781 10.546875 -10.125 C 10.546875 -9.832031 10.441406 -9.578125 10.234375 -9.359375 C 10.035156 -9.148438 9.78125 -9.046875 9.46875 -9.046875 C 9.175781 -9.046875 8.921875 -9.148438 8.703125 -9.359375 C 8.492188 -9.578125 8.390625 -9.832031 8.390625 -10.125 C 8.390625 -10.425781 8.492188 -10.679688 8.703125 -10.890625 C 8.921875 -11.097656 9.175781 -11.203125 9.46875 -11.203125 Z M 9.46875 -11.203125 "/></g></g></g></svg>